<?xml version="1.0" encoding="utf-8"?>
<!-- Generator: Adobe Illustrator 23.0.6, SVG Export Plug-In . SVG Version: 6.00 Build 0)  -->
<svg version="1.1" id="Слой_1" xmlns="http://www.w3.org/2000/svg" xmlns:xlink="http://www.w3.org/1999/xlink" x="0px" y="0px"
	 viewBox="0 0 932.24 765.87" style="enable-background:new 0 0 932.24 765.87;" xml:space="preserve">
<style type="text/css">
	.st0{fill:url(#SVGID_1_);}
</style>
<linearGradient id="SVGID_1_" gradientUnits="userSpaceOnUse" x1="315.3307" y1="805.4737" x2="710.6876" y2="-29.0928">
	<stop  offset="9.870280e-03" style="stop-color:#FF8B5D"/>
	<stop  offset="0.1951" style="stop-color:#FF776A"/>
	<stop  offset="0.7373" style="stop-color:#FF408C"/>
	<stop  offset="1" style="stop-color:#FF2A9A"/>
</linearGradient>
<path class="st0" d="M147.07,266.27c16.93-23.04,39.51-51.37,68.31-81.85c14.58-15.43,39.86-42,76.92-72
	c24.95-20.19,54.43-44.06,96.62-65.85C417.1,32.02,461.75,9.46,523.69,2.27c88.36-10.26,156.02,17.25,170.46,23.38
	c72.17,30.67,112.48,78.93,139.08,110.77C878,190.01,898.19,240.01,904,255.2c8.32,21.73,22.8,60.53,25.24,113.85
	c2.75,59.98-11.14,107.76-21.55,135.39c-23.13,61.38-57.81,99.47-76.31,119.39c-11.09,11.94-38.02,39.46-79.39,65.85
	c-50.54,32.24-95.03,45.18-126.77,54.15c-60.23,17.03-107.58,19.81-150.16,22.05c-26.22,1.38-91.16,3.6-174.16-8.51
	c-41.66-6.08-90.91-12.8-148.31-34.46c0,0-60.47-22.82-105.23-63.39c-3.55-3.22-7.18-6.78-11.08-11.38
	c-20.89-24.71-25.87-52.07-28-64.62c-2.91-17.12-2.24-30.42-1.74-39.08c0.54-9.59,2.29-27.8,11.59-56.62
	c10.35-32.06,22.97-55.28,28.31-64.92C82.57,357.68,133.88,284.86,147.07,266.27z"/>
</svg>
