<?xml version="1.0" encoding="utf-8"?>
<!-- Generator: Adobe Illustrator 23.0.6, SVG Export Plug-In . SVG Version: 6.00 Build 0)  -->
<svg version="1.1" id="Слой_1" xmlns="http://www.w3.org/2000/svg" xmlns:xlink="http://www.w3.org/1999/xlink" x="0px" y="0px"
	 viewBox="0 0 612 792" style="enable-background:new 0 0 612 792;" xml:space="preserve">
<style type="text/css">
	.st0{fill:url(#SVGID_1_);}
</style>
<linearGradient id="SVGID_1_" gradientUnits="userSpaceOnUse" x1="258.74" y1="541.8863" x2="412.9276" y2="216.4089">
	<stop  offset="9.870280e-03" style="stop-color:#FF8B5D"/>
	<stop  offset="0.1951" style="stop-color:#FF776A"/>
	<stop  offset="0.7373" style="stop-color:#FF408C"/>
	<stop  offset="1" style="stop-color:#FF2A9A"/>
</linearGradient>
<path class="st0" d="M193.12,331.6c6.6-8.98,15.41-20.03,26.64-31.92c5.68-6.02,15.55-16.38,30-28.08
	c9.73-7.87,21.23-17.18,37.68-25.68c10.99-5.68,28.4-14.47,52.56-17.28c34.46-4,60.85,6.73,66.48,9.12
	c28.14,11.96,43.87,30.78,54.24,43.2c17.46,20.9,25.33,40.4,27.6,46.32c3.24,8.48,8.89,23.61,9.84,44.4
	c1.07,23.39-4.34,42.02-8.4,52.8c-9.02,23.94-22.54,38.79-29.76,46.56c-4.33,4.66-14.83,15.39-30.96,25.68
	c-19.71,12.57-37.06,17.62-49.44,21.12c-23.49,6.64-41.96,7.72-58.56,8.6c-10.23,0.54-35.55,1.4-67.92-3.32
	c-16.25-2.37-35.45-4.99-57.84-13.44c0,0-23.58-8.9-41.04-24.72c-1.38-1.25-2.8-2.64-4.32-4.44c-8.15-9.63-10.09-20.31-10.92-25.2
	c-1.14-6.68-0.87-11.86-0.68-15.24c0.21-3.74,0.89-10.84,4.52-22.08c4.04-12.5,8.96-21.56,11.04-25.32
	C167.96,367.25,187.97,338.85,193.12,331.6z"/>
</svg>
