<svg xmlns="http://www.w3.org/2000/svg" xmlns:xlink="http://www.w3.org/1999/xlink" viewBox="0 0 517.29 436.54"><defs><style>.a{fill:url(#a);}</style><linearGradient id="a" x1="743.56" y1="635.54" x2="743.56" y2="199" gradientUnits="userSpaceOnUse"><stop offset="0.16" stop-color="#ff8e5b"/><stop offset="0.63" stop-color="#ff5a7b"/><stop offset="1" stop-color="#ff3592"/></linearGradient></defs><title>ellipse2</title><path class="a" d="M800,199a200.54,200.54,0,0,1,55,9,179.07,179.07,0,0,1,21,8,172.42,172.42,0,0,1,39,25c56.61,46.76,76,108,76,108a249.08,249.08,0,0,1,10,52c.94,10.81,2.17,25.05,0,43-3.75,31-15.23,53.12-21,64-3.06,5.78-17.29,31.93-46,58-5.35,4.86-28.8,25.69-68,43-42.68,18.84-78.78,23.28-108,25-51,3-89,3-158-13-50.82-11.78-89.85-29.07-107-66-24.54-52.83,13.54-121.38,25-142,8.16-14.68,23.19-37.3,39-58,12.37-16.19,23.08-28.41,29-35a549.57,549.57,0,0,1,42-42c18.85-16.84,39.63-35.42,66-50C713.35,217.3,748.63,201.61,800,199Z" transform="translate(-484.92 -199)"/></svg>